<svg width="48" height="27" viewBox="0 0 48 27" fill="none" xmlns="http://www.w3.org/2000/svg">
<path d="M43.1503 12.2822C42.5748 12.2864 42.0048 12.3962 41.4675 12.6064L35.7272 7.82167C35.8685 7.30005 35.969 6.75894 35.969 6.18858C35.969 2.81028 33.3023 0.0949707 29.9845 0.0949707C26.6668 0.0949707 24.0001 2.81028 24.0001 6.18858C24.0001 7.15381 24.2395 8.05322 24.6273 8.86246L17.6637 17.2424C17.385 17.1893 17.1023 17.1607 16.8187 17.1571C16.3902 17.1571 15.9857 17.2302 15.5931 17.3374L9.45785 11.0903C9.56557 10.693 9.63739 10.281 9.63739 9.84475C9.63739 7.14406 7.50213 4.96986 4.84982 4.96986C2.19751 4.96986 0.0622559 7.14406 0.0622559 9.84475C0.0622559 12.5454 2.19751 14.7196 4.84982 14.7196C5.27831 14.7196 5.68286 14.6465 6.07544 14.5393L12.2107 20.7864C12.0956 21.1914 12.0352 21.6104 12.0312 22.032C12.0312 24.7327 14.1664 26.9069 16.8187 26.9069C19.471 26.9069 21.6063 24.7327 21.6063 22.032C21.6063 21.4543 21.4914 20.9107 21.3119 20.3964L28.2849 12.0068C28.8283 12.1676 29.3909 12.2822 29.9845 12.2822C30.9292 12.2769 31.859 12.0421 32.6967 11.5973L38.4394 16.382C38.3943 16.638 38.3687 16.8971 38.3628 17.1571C38.3628 19.8578 40.498 22.032 43.1503 22.032C45.8026 22.032 47.9379 19.8578 47.9379 17.1571C47.9379 14.4564 45.8026 12.2822 43.1503 12.2822Z" fill="#00A0C1"/>
</svg>
